<?xml version="1.0" encoding="UTF-8" standalone="no"?>
<svg
   xmlns:dc="http://purl.org/dc/elements/1.1/"
   xmlns:cc="http://creativecommons.org/ns#"
   xmlns:rdf="http://www.w3.org/1999/02/22-rdf-syntax-ns#"
   xmlns:svg="http://www.w3.org/2000/svg"
   xmlns="http://www.w3.org/2000/svg"
   xmlns:xlink="http://www.w3.org/1999/xlink"
   id="svg4600"
   version="1.1"
   viewBox="0 0 171 171"
   height="171"
   width="171">
  <metadata
     id="metadata4604">
    <rdf:RDF>
      <cc:Work
         rdf:about="">
        <dc:format>image/svg+xml</dc:format>
        <dc:type
           rdf:resource="http://purl.org/dc/dcmitype/StillImage" />
        <dc:title>snorkel-logo</dc:title>
      </cc:Work>
    </rdf:RDF>
  </metadata>
  <!-- Generator: Sketch 55.2 (78181) - https://sketchapp.com -->
  <title
     id="title4581">snorkel-logo</title>
  <desc
     id="desc4583">Created with Sketch.</desc>
  <defs
     id="defs4586">
    <path
       id="path-1"
       d="m 26.1855,24.855 c 0,3.267 -1.5345,6.237 -4.0095,8.1675 -2.4255,1.9305 -5.5935,2.8215 -9.2565,2.8215 -4.95,0 -9.3555,-2.574 -12.1275,-5.148 l 3.96,-5.841 c 2.475,2.574 6.2865,4.3065 8.91,4.3065 2.574,0 4.554,-1.2375 4.554,-3.5145 0,-2.3265 -2.5245,-3.2175 -4.0095,-3.762 C 12.7215,21.3405 10.1475,20.4495 9.009,19.9545 8.1675,19.5585 6.435,18.915 4.95,17.4795 3.465,16.0935 2.277,14.1135 2.277,10.896 2.277,7.629 3.861,5.055 5.841,3.4215 7.7715,1.788 10.89,0.699 14.85,0.699 c 3.96,0 8.514,1.881 10.8405,4.2075 L 22.275,10.5 c -1.98,-1.98 -5.049,-3.465 -7.623,-3.465 -2.574,0 -4.455,0.99 -4.455,3.069 0,2.079 1.9305,2.871 3.465,3.465 1.485,0.594 4.0095,1.485 5.0985,1.9305 0.9405,0.3465 3.2175,1.2375 4.752,2.772 1.4355,1.4355 2.673,3.5145 2.673,6.5835 z m 27.72,-4.0095 V 35.25 h -7.92 V 22.5285 c 0,-3.2175 -0.495,-5.643 -3.762,-5.643 -3.4155,0 -4.356,2.772 -4.356,6.2865 V 35.25 h -7.92 V 10.8465 h 7.92 L 37.818,14.361 h 0.099 c 1.3365,-2.178 3.564,-3.96 7.0785,-3.96 7.0785,0 8.91,4.554 8.91,10.4445 z m 30.7395,2.277 c 0,7.8705 -5.7915,12.672 -13.5135,12.672 -7.722,0 -13.563,-4.8015 -13.563,-12.672 0,-7.8705 5.841,-12.7215 13.563,-12.7215 7.722,0 13.5135,4.851 13.5135,12.7215 z M 76.6755,22.974 c 0,-3.6135 -2.079,-6.336 -5.544,-6.336 -3.5145,0 -5.544,2.7225 -5.544,6.336 0,3.6135 2.0295,6.336 5.544,6.336 3.465,0 5.544,-2.7225 5.544,-6.336 z m 28.314,-12.1275 -0.4455,7.2765 h -0.3465 c -0.4455,-0.2475 -1.485,-0.594 -2.871,-0.594 -1.782,0 -3.069,0.99 -3.663,1.782 -0.594,0.792 -1.2375,2.376 -1.2375,5.0985 V 35.25 h -7.92 V 10.8465 h 7.92 l -0.0495,3.465 h 0.099 c 1.386,-2.673 3.4155,-3.9105 6.039,-3.9105 1.6335,0 2.475,0.4455 2.475,0.4455 z m 18.414,9.1575 9.6525,15.246 h -9.108 l -5.9895,-9.504 -2.178,2.1285 V 35.25 h -7.92 V 1.095 h 7.92 v 17.82 l 7.425,-8.0685 h 9.108 z m 34.254,2.3265 c 0,1.188 -0.099,2.6235 -0.099,2.6235 H 140.184 c 0.3465,3.5145 3.0195,5.0985 6.237,5.0985 3.168,0 5.94,-1.386 7.326,-2.3265 l 3.1185,4.1085 c -0.792,0.594 -4.0095,3.96 -11.583,3.96 -7.524,0 -13.0185,-4.653 -13.0185,-12.7215 0,-8.0685 5.94,-12.672 13.167,-12.672 7.227,0 12.2265,4.8015 12.2265,11.9295 z m -17.424,-1.881 h 10.0485 c -0.0495,-2.2275 -1.683,-4.9005 -4.9995,-4.9005 -3.267,0 -4.95,2.574 -5.049,4.9005 z M 170.1885,1.095 V 35.25 h -7.92 V 1.095 Z" />
  </defs>
  <g
     transform="translate(-0.59623441,30.240586)"
     style="fill:none;fill-rule:evenodd;stroke:none;stroke-width:1"
     id="Page-1">
    <g
       style="fill-rule:nonzero"
       id="snorkel-logo">
      <g
         transform="translate(0,35)"
         id="Snorkel-Copy-2">
        <g
           id="Combined-Shape">
          <use
             height="100%"
             width="100%"
             y="0"
             x="0"
             style="fill:#000000"
             id="use4588"
             xlink:href="#path-1" />
          <use
             height="100%"
             width="100%"
             y="0"
             x="0"
             style="fill:#0d2f3b"
             id="use4590"
             xlink:href="#path-1" />
        </g>
      </g>
      <g
         style="fill:#00a5c9"
         transform="translate(63)"
         id="Group-4">
        <ellipse
           ry="7"
           rx="7.2692308"
           cy="29"
           cx="9.3461542"
           id="Oval" />
        <ellipse
           ry="5"
           rx="5.1923075"
           cy="13"
           cx="21.807692"
           id="Oval-Copy-3" />
        <ellipse
           ry="3"
           rx="3.1153846"
           cy="3"
           cx="3.1153846"
           id="Oval-Copy-4" />
      </g>
    </g>
  </g>
</svg>
